# Source mesh for AnimusForge scene taunt denar drops.
# Import this into the Bannerlord Resource Browser and name the mesh animusforge_denar_coin.
# Create a small collision body named bo_animusforge_denar_coin before enabling the prefab XML.
mtllib animusforge_denar_coin.mtl
o animusforge_denar_coin
usemtl dinar_gold
v 0.0600 0.0000 0.0040
v 0.0554 0.0230 0.0040
v 0.0424 0.0424 0.0040
v 0.0230 0.0554 0.0040
v 0.0000 0.0600 0.0040
v -0.0230 0.0554 0.0040
v -0.0424 0.0424 0.0040
v -0.0554 0.0230 0.0040
v -0.0600 0.0000 0.0040
v -0.0554 -0.0230 0.0040
v -0.0424 -0.0424 0.0040
v -0.0230 -0.0554 0.0040
v -0.0000 -0.0600 0.0040
v 0.0230 -0.0554 0.0040
v 0.0424 -0.0424 0.0040
v 0.0554 -0.0230 0.0040
v 0.0600 0.0000 -0.0040
v 0.0554 0.0230 -0.0040
v 0.0424 0.0424 -0.0040
v 0.0230 0.0554 -0.0040
v 0.0000 0.0600 -0.0040
v -0.0230 0.0554 -0.0040
v -0.0424 0.0424 -0.0040
v -0.0554 0.0230 -0.0040
v -0.0600 0.0000 -0.0040
v -0.0554 -0.0230 -0.0040
v -0.0424 -0.0424 -0.0040
v -0.0230 -0.0554 -0.0040
v -0.0000 -0.0600 -0.0040
v 0.0230 -0.0554 -0.0040
v 0.0424 -0.0424 -0.0040
v 0.0554 -0.0230 -0.0040
v 0.0000 0.0000 0.0060
v 0.0440 0.0000 0.0060
v 0.0311 0.0311 0.0060
v 0.0000 0.0440 0.0060
v -0.0311 0.0311 0.0060
v -0.0440 0.0000 0.0060
v -0.0311 -0.0311 0.0060
v -0.0000 -0.0440 0.0060
v 0.0311 -0.0311 0.0060
vn 0.0000 0.0000 1.0000
vn 0.0000 0.0000 -1.0000
f 33//1 1//1 2//1
f 33//1 2//1 3//1
f 33//1 3//1 4//1
f 33//1 4//1 5//1
f 33//1 5//1 6//1
f 33//1 6//1 7//1
f 33//1 7//1 8//1
f 33//1 8//1 9//1
f 33//1 9//1 10//1
f 33//1 10//1 11//1
f 33//1 11//1 12//1
f 33//1 12//1 13//1
f 33//1 13//1 14//1
f 33//1 14//1 15//1
f 33//1 15//1 16//1
f 33//1 16//1 1//1
f 17//2 32//2 31//2 30//2 29//2 28//2 27//2 26//2 25//2 24//2 23//2 22//2 21//2 20//2 19//2 18//2
f 1 17 18 2
f 2 18 19 3
f 3 19 20 4
f 4 20 21 5
f 5 21 22 6
f 6 22 23 7
f 7 23 24 8
f 8 24 25 9
f 9 25 26 10
f 10 26 27 11
f 11 27 28 12
f 12 28 29 13
f 13 29 30 14
f 14 30 31 15
f 15 31 32 16
f 16 32 17 1
f 34//1 35//1 33//1
f 35//1 36//1 33//1
f 36//1 37//1 33//1
f 37//1 38//1 33//1
f 38//1 39//1 33//1
f 39//1 40//1 33//1
f 40//1 41//1 33//1
f 41//1 34//1 33//1
